<svg width="1440" height="802" xmlns="http://www.w3.org/2000/svg"><g><path d="M-30.870818668045104,-48.837051324080676L-68.44986239215359,17.96869555255398L49.834373912308365,-37.943712070118636Z" fill="#8fe6dd" stroke="#8fe6dd"></path><path d="M-30.870818668045104,-48.837051324080676L49.834373912308365,-37.943712070118636L235.64937522402033,-59.560925592668355Z" fill="#9fefdb" stroke="#9fefdb"></path><path d="M-30.870818668045104,-48.837051324080676L235.64937522402033,-59.560925592668355L391.46145896753296,-118.3125008805655Z" fill="#b1f9d9" stroke="#b1f9d9"></path><path d="M49.834373912308365,-37.943712070118636L-68.44986239215359,17.96869555255398L44.79625195497647,78.43582320958376Z" fill="#a3e9d8" stroke="#a3e9d8"></path><path d="M49.834373912308365,-37.943712070118636L44.79625195497647,78.43582320958376L246.55725628137589,51.5672560618259Z" fill="#c0f3d3" stroke="#c0f3d3"></path><path d="M49.834373912308365,-37.943712070118636L246.55725628137589,51.5672560618259L235.64937522402033,-59.560925592668355Z" fill="#c0f8d4" stroke="#c0f8d4"></path><path d="M235.64937522402033,-59.560925592668355L246.55725628137589,51.5672560618259L358.43259289860725,47.104190464597195Z" fill="#d2f8d3" stroke="#d2f8d3"></path><path d="M235.64937522402033,-59.560925592668355L358.43259289860725,47.104190464597195L391.46145896753296,-118.3125008805655Z" fill="#baf1db" stroke="#baf1db"></path><path d="M391.46145896753296,-118.3125008805655L358.43259289860725,47.104190464597195L462.02536476543173,-67.05569205572829Z" fill="#afe6e2" stroke="#afe6e2"></path><path d="M391.46145896753296,-118.3125008805655L462.02536476543173,-67.05569205572829L631.5033023501746,-85.27080861153081Z" fill="#98d8e9" stroke="#98d8e9"></path><path d="M391.46145896753296,-118.3125008805655L631.5033023501746,-85.27080861153081L802.1133489371277,-100.18489353824407Z" fill="#a3cbd1" stroke="#a3cbd1"></path><path d="M391.46145896753296,-118.3125008805655L802.1133489371277,-100.18489353824407L1027.788382023573,-133.98295853286982Z" fill="#a7bfbd" stroke="#a7bfbd"></path><path d="M462.02536476543173,-67.05569205572829L358.43259289860725,47.104190464597195L447.4019699986093,36.88524665078148Z" fill="#bde3df" stroke="#bde3df"></path><path d="M462.02536476543173,-67.05569205572829L447.4019699986093,36.88524665078148L630.4156805551611,80.11030597845092Z" fill="#bdd7db" stroke="#bdd7db"></path><path d="M462.02536476543173,-67.05569205572829L630.4156805551611,80.11030597845092L631.5033023501746,-85.27080861153081Z" fill="#b7cfd1" stroke="#b7cfd1"></path><path d="M631.5033023501746,-85.27080861153081L630.4156805551611,80.11030597845092L732.9828842892312,55.912679797038436Z" fill="#d0c5ba" stroke="#d0c5ba"></path><path d="M631.5033023501746,-85.27080861153081L732.9828842892312,55.912679797038436L802.1133489371277,-100.18489353824407Z" fill="#c3beb4" stroke="#c3beb4"></path><path d="M802.1133489371277,-100.18489353824407L732.9828842892312,55.912679797038436L884.163296148181,76.18941033259034Z" fill="#bfc7c0" stroke="#bfc7c0"></path><path d="M802.1133489371277,-100.18489353824407L884.163296148181,76.18941033259034L912.1564842760563,-43.63533035852015Z" fill="#a5cdcf" stroke="#a5cdcf"></path><path d="M802.1133489371277,-100.18489353824407L912.1564842760563,-43.63533035852015L1027.788382023573,-133.98295853286982Z" fill="#82d1df" stroke="#82d1df"></path><path d="M912.1564842760563,-43.63533035852015L884.163296148181,76.18941033259034L1079.0853717084974,45.99420533282682Z" fill="#9dd7dd" stroke="#9dd7dd"></path><path d="M912.1564842760563,-43.63533035852015L1079.0853717084974,45.99420533282682L1027.788382023573,-133.98295853286982Z" fill="#92d7d9" stroke="#92d7d9"></path><path d="M1027.788382023573,-133.98295853286982L1079.0853717084974,45.99420533282682L1212.6587008032948,-71.390149386134Z" fill="#a9d7c3" stroke="#a9d7c3"></path><path d="M1027.788382023573,-133.98295853286982L1212.6587008032948,-71.390149386134L1354.070617821999,-109.9430997017771Z" fill="#b0d7b1" stroke="#b0d7b1"></path><path d="M1027.788382023573,-133.98295853286982L1354.070617821999,-109.9430997017771L1460.9070587879978,-120.876502643805Z" fill="#acd79e" stroke="#acd79e"></path><path d="M1027.788382023573,-133.98295853286982L1460.9070587879978,-120.876502643805L1563.2173675391823,-122.78149645775557Z" fill="#abd88d" stroke="#abd88d"></path><path d="M1212.6587008032948,-71.390149386134L1079.0853717084974,45.99420533282682L1229.8781448672526,19.68498158501461Z" fill="#cbd8ae" stroke="#cbd8ae"></path><path d="M1212.6587008032948,-71.390149386134L1229.8781448672526,19.68498158501461L1341.5312763350084,6.185688194818795Z" fill="#cfd99b" stroke="#cfd99b"></path><path d="M1212.6587008032948,-71.390149386134L1341.5312763350084,6.185688194818795L1354.070617821999,-109.9430997017771Z" fill="#c1d895" stroke="#c1d895"></path><path d="M1354.070617821999,-109.9430997017771L1341.5312763350084,6.185688194818795L1409.7989230742678,22.64408348593861Z" fill="#cbd983" stroke="#cbd983"></path><path d="M1354.070617821999,-109.9430997017771L1409.7989230742678,22.64408348593861L1460.9070587879978,-120.876502643805Z" fill="#bdd97d" stroke="#bdd97d"></path><path d="M1460.9070587879978,-120.876502643805L1409.7989230742678,22.64408348593861L1545.9356987802312,43.45742110628635Z" fill="#ceda78" stroke="#ceda78"></path><path d="M1460.9070587879978,-120.876502643805L1545.9356987802312,43.45742110628635L1563.2173675391823,-122.78149645775557Z" fill="#beda7d" stroke="#beda7d"></path><path d="M1563.2173675391823,-122.78149645775557L1545.9356987802312,43.45742110628635L1633.3323689573444,211.63724187994376Z" fill="#e2db73" stroke="#e2db73"></path><path d="M-68.44986239215359,17.96869555255398L-127.61839146260172,432.90274906903505L-89.40775653114542,231.87649803701788Z" fill="#a6d5e1" stroke="#a6d5e1"></path><path d="M-68.44986239215359,17.96869555255398L-89.40775653114542,231.87649803701788L44.79625195497647,78.43582320958376Z" fill="#b5e5d2" stroke="#b5e5d2"></path><path d="M44.79625195497647,78.43582320958376L-89.40775653114542,231.87649803701788L88.52869423106313,212.14516010601074Z" fill="#c6e6d4" stroke="#c6e6d4"></path><path d="M44.79625195497647,78.43582320958376L88.52869423106313,212.14516010601074L246.55725628137589,51.5672560618259Z" fill="#def5cb" stroke="#def5cb"></path><path d="M246.55725628137589,51.5672560618259L88.52869423106313,212.14516010601074L145.25303683476523,254.3163169035688Z" fill="#e8f3ce" stroke="#e8f3ce"></path><path d="M246.55725628137589,51.5672560618259L145.25303683476523,254.3163169035688L311.4544412959367,235.1806965121068Z" fill="#f9f9cc" stroke="#f9f9cc"></path><path d="M246.55725628137589,51.5672560618259L311.4544412959367,235.1806965121068L358.43259289860725,47.104190464597195Z" fill="#eff5cc" stroke="#eff5cc"></path><path d="M358.43259289860725,47.104190464597195L311.4544412959367,235.1806965121068L503.6508725374006,184.23350139753893Z" fill="#e8e7d4" stroke="#e8e7d4"></path><path d="M358.43259289860725,47.104190464597195L503.6508725374006,184.23350139753893L447.4019699986093,36.88524665078148Z" fill="#d6e3d8" stroke="#d6e3d8"></path><path d="M447.4019699986093,36.88524665078148L503.6508725374006,184.23350139753893L630.4156805551611,80.11030597845092Z" fill="#dad7d1" stroke="#dad7d1"></path><path d="M630.4156805551611,80.11030597845092L503.6508725374006,184.23350139753893L612.0895198057406,200.2899990370497Z" fill="#eacec5" stroke="#eacec5"></path><path d="M630.4156805551611,80.11030597845092L612.0895198057406,200.2899990370497L768.4773753373884,222.06544337328523Z" fill="#f3c2b4" stroke="#f3c2b4"></path><path d="M630.4156805551611,80.11030597845092L768.4773753373884,222.06544337328523L732.9828842892312,55.912679797038436Z" fill="#f8c1a7" stroke="#f8c1a7"></path><path d="M732.9828842892312,55.912679797038436L768.4773753373884,222.06544337328523L853.7187081598677,189.7090072510764Z" fill="#eac4b4" stroke="#eac4b4"></path><path d="M732.9828842892312,55.912679797038436L853.7187081598677,189.7090072510764L884.163296148181,76.18941033259034Z" fill="#dacabb" stroke="#dacabb"></path><path d="M884.163296148181,76.18941033259034L853.7187081598677,189.7090072510764L1070.165923340246,214.915053548757Z" fill="#c3d2d3" stroke="#c3d2d3"></path><path d="M884.163296148181,76.18941033259034L1070.165923340246,214.915053548757L1079.0853717084974,45.99420533282682Z" fill="#c6d9ca" stroke="#c6d9ca"></path><path d="M1079.0853717084974,45.99420533282682L1070.165923340246,214.915053548757L1162.90854586754,190.53225802723318Z" fill="#e3d7b5" stroke="#e3d7b5"></path><path d="M1079.0853717084974,45.99420533282682L1162.90854586754,190.53225802723318L1229.8781448672526,19.68498158501461Z" fill="#e4d9aa" stroke="#e4d9aa"></path><path d="M1229.8781448672526,19.68498158501461L1162.90854586754,190.53225802723318L1347.5815821276046,172.38568380009383Z" fill="#fdda91" stroke="#fdda91"></path><path d="M1229.8781448672526,19.68498158501461L1347.5815821276046,172.38568380009383L1341.5312763350084,6.185688194818795Z" fill="#e9d989" stroke="#e9d989"></path><path d="M1341.5312763350084,6.185688194818795L1347.5815821276046,172.38568380009383L1409.7989230742678,22.64408348593861Z" fill="#eada7b" stroke="#eada7b"></path><path d="M1409.7989230742678,22.64408348593861L1347.5815821276046,172.38568380009383L1429.2533038160764,232.47992306249216Z" fill="#feda6f" stroke="#feda6f"></path><path d="M1409.7989230742678,22.64408348593861L1429.2533038160764,232.47992306249216L1545.9356987802312,43.45742110628635Z" fill="#f4db6e" stroke="#f4db6e"></path><path d="M1545.9356987802312,43.45742110628635L1429.2533038160764,232.47992306249216L1633.3323689573444,211.63724187994376Z" fill="#fcd86f" stroke="#fcd86f"></path><path d="M-89.40775653114542,231.87649803701788L-127.61839146260172,432.90274906903505L-45.936946521978825,298.2181200827472Z" fill="#a9c3cf" stroke="#a9c3cf"></path><path d="M-89.40775653114542,231.87649803701788L-45.936946521978825,298.2181200827472L88.52869423106313,212.14516010601074Z" fill="#b7dae1" stroke="#b7dae1"></path><path d="M88.52869423106313,212.14516010601074L-45.936946521978825,298.2181200827472L110.99565761629492,368.5774576663971Z" fill="#c7d7d6" stroke="#c7d7d6"></path><path d="M88.52869423106313,212.14516010601074L110.99565761629492,368.5774576663971L145.25303683476523,254.3163169035688Z" fill="#d5e0d9" stroke="#d5e0d9"></path><path d="M145.25303683476523,254.3163169035688L110.99565761629492,368.5774576663971L226.92391375545412,290.1077756402083Z" fill="#e3decc" stroke="#e3decc"></path><path d="M145.25303683476523,254.3163169035688L226.92391375545412,290.1077756402083L311.4544412959367,235.1806965121068Z" fill="#efefd9" stroke="#efefd9"></path><path d="M311.4544412959367,235.1806965121068L226.92391375545412,290.1077756402083L358.551189834252,293.1578295887448Z" fill="#eae5dc" stroke="#eae5dc"></path><path d="M311.4544412959367,235.1806965121068L358.551189834252,293.1578295887448L503.6508725374006,184.23350139753893Z" fill="#e0dde1" stroke="#e0dde1"></path><path d="M503.6508725374006,184.23350139753893L358.551189834252,293.1578295887448L454.73997284658253,309.38660628860816Z" fill="#d7d3e8" stroke="#d7d3e8"></path><path d="M503.6508725374006,184.23350139753893L454.73997284658253,309.38660628860816L576.7857925430872,360.2492543240078Z" fill="#d7c4de" stroke="#d7c4de"></path><path d="M503.6508725374006,184.23350139753893L576.7857925430872,360.2492543240078L612.0895198057406,200.2899990370497Z" fill="#ddc5d8" stroke="#ddc5d8"></path><path d="M612.0895198057406,200.2899990370497L576.7857925430872,360.2492543240078L733.6913930508308,298.9543088199571Z" fill="#e7b4c1" stroke="#e7b4c1"></path><path d="M612.0895198057406,200.2899990370497L733.6913930508308,298.9543088199571L768.4773753373884,222.06544337328523Z" fill="#f0b5b8" stroke="#f0b5b8"></path><path d="M768.4773753373884,222.06544337328523L733.6913930508308,298.9543088199571L853.7187081598677,189.7090072510764Z" fill="#e2bac1" stroke="#e2bac1"></path><path d="M853.7187081598677,189.7090072510764L733.6913930508308,298.9543088199571L947.8963886527345,370.1398460473865Z" fill="#d1b7ca" stroke="#d1b7ca"></path><path d="M853.7187081598677,189.7090072510764L947.8963886527345,370.1398460473865L1020.4102599364705,316.21901765232906Z" fill="#b9bfda" stroke="#b9bfda"></path><path d="M853.7187081598677,189.7090072510764L1020.4102599364705,316.21901765232906L1070.165923340246,214.915053548757Z" fill="#bacbe0" stroke="#bacbe0"></path><path d="M1070.165923340246,214.915053548757L1020.4102599364705,316.21901765232906L1227.8055591811426,368.7388042570092Z" fill="#dbc0b8" stroke="#dbc0b8"></path><path d="M1070.165923340246,214.915053548757L1227.8055591811426,368.7388042570092L1162.90854586754,190.53225802723318Z" fill="#e5caba" stroke="#e5caba"></path><path d="M1162.90854586754,190.53225802723318L1227.8055591811426,368.7388042570092L1351.0844720806926,312.629960316699Z" fill="#f4c49b" stroke="#f4c49b"></path><path d="M1162.90854586754,190.53225802723318L1351.0844720806926,312.629960316699L1347.5815821276046,172.38568380009383Z" fill="#f6cf96" stroke="#f6cf96"></path><path d="M1347.5815821276046,172.38568380009383L1351.0844720806926,312.629960316699L1429.2533038160764,232.47992306249216Z" fill="#f4ce83" stroke="#f4ce83"></path><path d="M1429.2533038160764,232.47992306249216L1351.0844720806926,312.629960316699L1508.1414818647318,341.8645440344699Z" fill="#f4c373" stroke="#f4c373"></path><path d="M1429.2533038160764,232.47992306249216L1508.1414818647318,341.8645440344699L1573.1509941769764,317.8868928924203Z" fill="#f4c372" stroke="#f4c372"></path><path d="M1429.2533038160764,232.47992306249216L1573.1509941769764,317.8868928924203L1633.3323689573444,211.63724187994376Z" fill="#f3cd7e" stroke="#f3cd7e"></path><path d="M1633.3323689573444,211.63724187994376L1573.1509941769764,317.8868928924203L1611.935276510194,573.2666437746957Z" fill="#fcb153" stroke="#fcb153"></path><path d="M1633.3323689573444,211.63724187994376L1611.935276510194,573.2666437746957L1621.814028096851,863.0931398668326Z" fill="#d1c677" stroke="#d1c677"></path><path d="M-45.936946521978825,298.2181200827472L-127.61839146260172,432.90274906903505L84.35532381758094,452.9546688310802Z" fill="#bfb5ac" stroke="#bfb5ac"></path><path d="M-45.936946521978825,298.2181200827472L84.35532381758094,452.9546688310802L110.99565761629492,368.5774576663971Z" fill="#cfc2b2" stroke="#cfc2b2"></path><path d="M110.99565761629492,368.5774576663971L84.35532381758094,452.9546688310802L225.69483979605138,513.702232495416Z" fill="#d7ccb5" stroke="#d7ccb5"></path><path d="M110.99565761629492,368.5774576663971L225.69483979605138,513.702232495416L307.95446345815435,440.51364035578445Z" fill="#ead2b0" stroke="#ead2b0"></path><path d="M110.99565761629492,368.5774576663971L307.95446345815435,440.51364035578445L226.92391375545412,290.1077756402083Z" fill="#f6d2ae" stroke="#f6d2ae"></path><path d="M226.92391375545412,290.1077756402083L307.95446345815435,440.51364035578445L358.551189834252,293.1578295887448Z" fill="#f1d3bd" stroke="#f1d3bd"></path><path d="M358.551189834252,293.1578295887448L307.95446345815435,440.51364035578445L454.73997284658253,309.38660628860816Z" fill="#e8c7c0" stroke="#e8c7c0"></path><path d="M454.73997284658253,309.38660628860816L307.95446345815435,440.51364035578445L529.3051772681065,533.8977749086916Z" fill="#dbb6b9" stroke="#dbb6b9"></path><path d="M454.73997284658253,309.38660628860816L529.3051772681065,533.8977749086916L573.4822612954304,444.0260812500492Z" fill="#d9abb5" stroke="#d9abb5"></path><path d="M454.73997284658253,309.38660628860816L573.4822612954304,444.0260812500492L576.7857925430872,360.2492543240078Z" fill="#e3abb3" stroke="#e3abb3"></path><path d="M576.7857925430872,360.2492543240078L573.4822612954304,444.0260812500492L758.886328751687,470.0112356664613Z" fill="#ea9b9a" stroke="#ea9b9a"></path><path d="M576.7857925430872,360.2492543240078L758.886328751687,470.0112356664613L733.6913930508308,298.9543088199571Z" fill="#f7968f" stroke="#f7968f"></path><path d="M733.6913930508308,298.9543088199571L758.886328751687,470.0112356664613L853.47225534264,462.1881384216249Z" fill="#ea958e" stroke="#ea958e"></path><path d="M733.6913930508308,298.9543088199571L853.47225534264,462.1881384216249L947.8963886527345,370.1398460473865Z" fill="#dba0a1" stroke="#dba0a1"></path><path d="M947.8963886527345,370.1398460473865L853.47225534264,462.1881384216249L1055.7030695071444,534.0541523043066Z" fill="#adb0c4" stroke="#adb0c4"></path><path d="M947.8963886527345,370.1398460473865L1055.7030695071444,534.0541523043066L1020.4102599364705,316.21901765232906Z" fill="#caa7a5" stroke="#caa7a5"></path><path d="M1020.4102599364705,316.21901765232906L1055.7030695071444,534.0541523043066L1227.8055591811426,368.7388042570092Z" fill="#e3a78f" stroke="#e3a78f"></path><path d="M1227.8055591811426,368.7388042570092L1055.7030695071444,534.0541523043066L1226.4811264560558,531.3199819857255Z" fill="#d9b79e" stroke="#d9b79e"></path><path d="M1227.8055591811426,368.7388042570092L1226.4811264560558,531.3199819857255L1352.6176413195208,521.2053816113621Z" fill="#e3b785" stroke="#e3b785"></path><path d="M1227.8055591811426,368.7388042570092L1352.6176413195208,521.2053816113621L1351.0844720806926,312.629960316699Z" fill="#ffa75b" stroke="#ffa75b"></path><path d="M1351.0844720806926,312.629960316699L1352.6176413195208,521.2053816113621L1467.5717587256804,482.0079654059373Z" fill="#f1b059" stroke="#f1b059"></path><path d="M1351.0844720806926,312.629960316699L1467.5717587256804,482.0079654059373L1508.1414818647318,341.8645440344699Z" fill="#fdae4e" stroke="#fdae4e"></path><path d="M1508.1414818647318,341.8645440344699L1467.5717587256804,482.0079654059373L1559.5134547818452,519.1090059070848Z" fill="#edb358" stroke="#edb358"></path><path d="M1508.1414818647318,341.8645440344699L1559.5134547818452,519.1090059070848L1573.1509941769764,317.8868928924203Z" fill="#feaa48" stroke="#feaa48"></path><path d="M1573.1509941769764,317.8868928924203L1559.5134547818452,519.1090059070848L1611.935276510194,573.2666437746957Z" fill="#e5b862" stroke="#e5b862"></path><path d="M-127.61839146260172,432.90274906903505L-122.37986186053604,893.2392257405445L-120.41927428916097,576.2785063032061Z" fill="#9cc9b5" stroke="#9cc9b5"></path><path d="M-127.61839146260172,432.90274906903505L-120.41927428916097,576.2785063032061L84.35532381758094,452.9546688310802Z" fill="#98c4d0" stroke="#98c4d0"></path><path d="M84.35532381758094,452.9546688310802L-120.41927428916097,576.2785063032061L54.98779511079192,639.9919519666582Z" fill="#9dd4d6" stroke="#9dd4d6"></path><path d="M84.35532381758094,452.9546688310802L54.98779511079192,639.9919519666582L191.0664760833606,621.1788407643326Z" fill="#bbdecb" stroke="#bbdecb"></path><path d="M84.35532381758094,452.9546688310802L191.0664760833606,621.1788407643326L225.69483979605138,513.702232495416Z" fill="#bce2d8" stroke="#bce2d8"></path><path d="M225.69483979605138,513.702232495416L191.0664760833606,621.1788407643326L323.6217010440305,661.7179993446916Z" fill="#e3e9b8" stroke="#e3e9b8"></path><path d="M225.69483979605138,513.702232495416L323.6217010440305,661.7179993446916L307.95446345815435,440.51364035578445Z" fill="#c7e3d9" stroke="#c7e3d9"></path><path d="M307.95446345815435,440.51364035578445L323.6217010440305,661.7179993446916L478.4524335595779,607.9817978153005Z" fill="#c8d7d0" stroke="#c8d7d0"></path><path d="M307.95446345815435,440.51364035578445L478.4524335595779,607.9817978153005L529.3051772681065,533.8977749086916Z" fill="#b4cbe5" stroke="#b4cbe5"></path><path d="M529.3051772681065,533.8977749086916L478.4524335595779,607.9817978153005L672.567340543028,654.5791856804863Z" fill="#cebeb9" stroke="#cebeb9"></path><path d="M529.3051772681065,533.8977749086916L672.567340543028,654.5791856804863L573.4822612954304,444.0260812500492Z" fill="#bdb9ce" stroke="#bdb9ce"></path><path d="M573.4822612954304,444.0260812500492L672.567340543028,654.5791856804863L758.886328751687,470.0112356664613Z" fill="#c8adbd" stroke="#c8adbd"></path><path d="M758.886328751687,470.0112356664613L672.567340543028,654.5791856804863L795.5121825891547,653.3641666010953Z" fill="#dbad9e" stroke="#dbad9e"></path><path d="M758.886328751687,470.0112356664613L795.5121825891547,653.3641666010953L853.47225534264,462.1881384216249Z" fill="#b7b1c5" stroke="#b7b1c5"></path><path d="M853.47225534264,462.1881384216249L795.5121825891547,653.3641666010953L945.2257505408488,603.9238655590452Z" fill="#b4b9c1" stroke="#b4b9c1"></path><path d="M853.47225534264,462.1881384216249L945.2257505408488,603.9238655590452L1055.7030695071444,534.0541523043066Z" fill="#8fc1e6" stroke="#8fc1e6"></path><path d="M1055.7030695071444,534.0541523043066L945.2257505408488,603.9238655590452L1004.7116913972422,600.9892987110652Z" fill="#a9c3c7" stroke="#a9c3c7"></path><path d="M1055.7030695071444,534.0541523043066L1004.7116913972422,600.9892987110652L1159.3397655920126,625.3265467402525Z" fill="#bec4b3" stroke="#bec4b3"></path><path d="M1055.7030695071444,534.0541523043066L1159.3397655920126,625.3265467402525L1226.4811264560558,531.3199819857255Z" fill="#c8c4ad" stroke="#c8c4ad"></path><path d="M1226.4811264560558,531.3199819857255L1159.3397655920126,625.3265467402525L1297.464419142343,662.3556965589523Z" fill="#e7c585" stroke="#e7c585"></path><path d="M1226.4811264560558,531.3199819857255L1297.464419142343,662.3556965589523L1352.6176413195208,521.2053816113621Z" fill="#dac587" stroke="#dac587"></path><path d="M1352.6176413195208,521.2053816113621L1297.464419142343,662.3556965589523L1451.5716814249754,619.272105966229Z" fill="#e5c666" stroke="#e5c666"></path><path d="M1352.6176413195208,521.2053816113621L1451.5716814249754,619.272105966229L1467.5717587256804,482.0079654059373Z" fill="#cec57b" stroke="#cec57b"></path><path d="M1467.5717587256804,482.0079654059373L1451.5716814249754,619.272105966229L1559.5134547818452,519.1090059070848Z" fill="#cec67b" stroke="#cec67b"></path><path d="M1559.5134547818452,519.1090059070848L1451.5716814249754,619.272105966229L1611.935276510194,573.2666437746957Z" fill="#dac66c" stroke="#dac66c"></path><path d="M-120.41927428916097,576.2785063032061L-122.37986186053604,893.2392257405445L-93.51497418247163,752.442446288187Z" fill="#accc7e" stroke="#accc7e"></path><path d="M-120.41927428916097,576.2785063032061L-93.51497418247163,752.442446288187L54.98779511079192,639.9919519666582Z" fill="#b5d0a6" stroke="#b5d0a6"></path><path d="M54.98779511079192,639.9919519666582L-93.51497418247163,752.442446288187L11.748907691799104,814.1361815808341Z" fill="#c4d57d" stroke="#c4d57d"></path><path d="M54.98779511079192,639.9919519666582L11.748907691799104,814.1361815808341L191.50889169191942,727.7440259139985Z" fill="#dbde7d" stroke="#dbde7d"></path><path d="M54.98779511079192,639.9919519666582L191.50889169191942,727.7440259139985L191.0664760833606,621.1788407643326Z" fill="#e7e39b" stroke="#e7e39b"></path><path d="M191.0664760833606,621.1788407643326L191.50889169191942,727.7440259139985L304.9207698996179,720.3055110876448Z" fill="#fdeb8a" stroke="#fdeb8a"></path><path d="M191.0664760833606,621.1788407643326L304.9207698996179,720.3055110876448L323.6217010440305,661.7179993446916Z" fill="#fbe697" stroke="#fbe697"></path><path d="M323.6217010440305,661.7179993446916L304.9207698996179,720.3055110876448L465.3023879881948,801.6156029840931Z" fill="#eeda80" stroke="#eeda80"></path><path d="M323.6217010440305,661.7179993446916L465.3023879881948,801.6156029840931L478.4524335595779,607.9817978153005Z" fill="#e7d298" stroke="#e7d298"></path><path d="M478.4524335595779,607.9817978153005L465.3023879881948,801.6156029840931L618.0117329908535,742.2500244574621Z" fill="#e4c486" stroke="#e4c486"></path><path d="M478.4524335595779,607.9817978153005L618.0117329908535,742.2500244574621L672.567340543028,654.5791856804863Z" fill="#edbb90" stroke="#edbb90"></path><path d="M672.567340543028,654.5791856804863L618.0117329908535,742.2500244574621L792.2648013778962,721.1154649010859Z" fill="#faaf66" stroke="#faaf66"></path><path d="M672.567340543028,654.5791856804863L792.2648013778962,721.1154649010859L795.5121825891547,653.3641666010953Z" fill="#f5af77" stroke="#f5af77"></path><path d="M795.5121825891547,653.3641666010953L792.2648013778962,721.1154649010859L867.9905581008643,715.0285922945477Z" fill="#e4b67a" stroke="#e4b67a"></path><path d="M795.5121825891547,653.3641666010953L867.9905581008643,715.0285922945477L945.2257505408488,603.9238655590452Z" fill="#d3bb97" stroke="#d3bb97"></path><path d="M945.2257505408488,603.9238655590452L867.9905581008643,715.0285922945477L1004.7116913972422,600.9892987110652Z" fill="#bac2af" stroke="#bac2af"></path><path d="M1004.7116913972422,600.9892987110652L867.9905581008643,715.0285922945477L1067.7181141683832,786.8066992191598Z" fill="#c5c58f" stroke="#c5c58f"></path><path d="M1004.7116913972422,600.9892987110652L1067.7181141683832,786.8066992191598L1159.3397655920126,625.3265467402525Z" fill="#dec587" stroke="#dec587"></path><path d="M1159.3397655920126,625.3265467402525L1067.7181141683832,786.8066992191598L1182.9243592056446,751.0361475590616Z" fill="#eec660" stroke="#eec660"></path><path d="M1159.3397655920126,625.3265467402525L1182.9243592056446,751.0361475590616L1297.464419142343,662.3556965589523Z" fill="#ffc663" stroke="#ffc663"></path><path d="M1297.464419142343,662.3556965589523L1182.9243592056446,751.0361475590616L1314.3492332822643,794.8450833419338Z" fill="#ffc73a" stroke="#ffc73a"></path><path d="M1297.464419142343,662.3556965589523L1314.3492332822643,794.8450833419338L1405.9082744829357,712.8595000947826Z" fill="#ffc82f" stroke="#ffc82f"></path><path d="M1297.464419142343,662.3556965589523L1405.9082744829357,712.8595000947826L1451.5716814249754,619.272105966229Z" fill="#fec742" stroke="#fec742"></path><path d="M1451.5716814249754,619.272105966229L1405.9082744829357,712.8595000947826L1595.1149897067808,800.004725670442Z" fill="#ffc825" stroke="#ffc825"></path><path d="M1451.5716814249754,619.272105966229L1595.1149897067808,800.004725670442L1611.935276510194,573.2666437746957Z" fill="#fec83d" stroke="#fec83d"></path><path d="M1611.935276510194,573.2666437746957L1595.1149897067808,800.004725670442L1621.814028096851,863.0931398668326Z" fill="#ffc914" stroke="#ffc914"></path><path d="M-93.51497418247163,752.442446288187L-122.37986186053604,893.2392257405445L11.748907691799104,814.1361815808341Z" fill="#b6d267" stroke="#b6d267"></path><path d="M11.748907691799104,814.1361815808341L-122.37986186053604,893.2392257405445L52.24671517731622,895.1685740216635Z" fill="#c2d665" stroke="#c2d665"></path><path d="M11.748907691799104,814.1361815808341L52.24671517731622,895.1685740216635L191.50889169191942,727.7440259139985Z" fill="#dadf60" stroke="#dadf60"></path><path d="M191.50889169191942,727.7440259139985L52.24671517731622,895.1685740216635L242.44720391230658,933.3928069006652Z" fill="#ede75d" stroke="#ede75d"></path><path d="M191.50889169191942,727.7440259139985L242.44720391230658,933.3928069006652L304.9207698996179,720.3055110876448Z" fill="#feec5a" stroke="#feec5a"></path><path d="M304.9207698996179,720.3055110876448L242.44720391230658,933.3928069006652L358.5592447896488,919.7333441209048Z" fill="#f7e55f" stroke="#f7e55f"></path><path d="M304.9207698996179,720.3055110876448L358.5592447896488,919.7333441209048L465.3023879881948,801.6156029840931Z" fill="#edda65" stroke="#edda65"></path><path d="M465.3023879881948,801.6156029840931L358.5592447896488,919.7333441209048L484.3640121864155,883.7888894602656Z" fill="#e5d26a" stroke="#e5d26a"></path><path d="M465.3023879881948,801.6156029840931L484.3640121864155,883.7888894602656L618.0117329908535,742.2500244574621Z" fill="#e4c664" stroke="#e4c664"></path><path d="M618.0117329908535,742.2500244574621L484.3640121864155,883.7888894602656L618.9973642118275,939.7828945238143Z" fill="#ebc059" stroke="#ebc059"></path><path d="M618.0117329908535,742.2500244574621L618.9973642118275,939.7828945238143L709.5088062505238,862.7235803613439Z" fill="#f4b749" stroke="#f4b749"></path><path d="M618.0117329908535,742.2500244574621L709.5088062505238,862.7235803613439L792.2648013778962,721.1154649010859Z" fill="#fcaf41" stroke="#fcaf41"></path><path d="M792.2648013778962,721.1154649010859L709.5088062505238,862.7235803613439L857.3747520358302,903.7814075150527Z" fill="#ecb547" stroke="#ecb547"></path><path d="M792.2648013778962,721.1154649010859L857.3747520358302,903.7814075150527L867.9905581008643,715.0285922945477Z" fill="#dfb953" stroke="#dfb953"></path><path d="M867.9905581008643,715.0285922945477L857.3747520358302,903.7814075150527L1033.695526169613,856.8562055006623Z" fill="#cac362" stroke="#cac362"></path><path d="M867.9905581008643,715.0285922945477L1033.695526169613,856.8562055006623L1067.7181141683832,786.8066992191598Z" fill="#c8c663" stroke="#c8c663"></path><path d="M1067.7181141683832,786.8066992191598L1033.695526169613,856.8562055006623L1175.1932708616368,952.6391899143346Z" fill="#e2c84b" stroke="#e2c84b"></path><path d="M1067.7181141683832,786.8066992191598L1175.1932708616368,952.6391899143346L1182.9243592056446,751.0361475590616Z" fill="#efc83f" stroke="#efc83f"></path><path d="M1182.9243592056446,751.0361475590616L1175.1932708616368,952.6391899143346L1314.3492332822643,794.8450833419338Z" fill="#ffc82c" stroke="#ffc82c"></path><path d="M1314.3492332822643,794.8450833419338L1175.1932708616368,952.6391899143346L1355.4268291871995,914.1979668219574Z" fill="#ffca1e" stroke="#ffca1e"></path><path d="M1314.3492332822643,794.8450833419338L1355.4268291871995,914.1979668219574L1407.349536959082,872.4969778582454Z" fill="#ffca0c" stroke="#ffca0c"></path><path d="M1314.3492332822643,794.8450833419338L1407.349536959082,872.4969778582454L1405.9082744829357,712.8595000947826Z" fill="#ffc908" stroke="#ffc908"></path><path d="M1405.9082744829357,712.8595000947826L1407.349536959082,872.4969778582454L1595.1149897067808,800.004725670442Z" fill="#ffc900" stroke="#ffc900"></path><path d="M1595.1149897067808,800.004725670442L1407.349536959082,872.4969778582454L1621.814028096851,863.0931398668326Z" fill="#ffca00" stroke="#ffca00"></path><path d="M-122.37986186053604,893.2392257405445L242.44720391230658,933.3928069006652L52.24671517731622,895.1685740216635Z" fill="#d4de61" stroke="#d4de61"></path><path d="M242.44720391230658,933.3928069006652L1175.1932708616368,952.6391899143346L618.9973642118275,939.7828945238143Z" fill="#f8b542" stroke="#f8b542"></path><path d="M242.44720391230658,933.3928069006652L618.9973642118275,939.7828945238143L358.5592447896488,919.7333441209048Z" fill="#e9d767" stroke="#e9d767"></path><path d="M358.5592447896488,919.7333441209048L618.9973642118275,939.7828945238143L484.3640121864155,883.7888894602656Z" fill="#e0cb6c" stroke="#e0cb6c"></path><path d="M618.9973642118275,939.7828945238143L1175.1932708616368,952.6391899143346L857.3747520358302,903.7814075150527Z" fill="#d3c05a" stroke="#d3c05a"></path><path d="M618.9973642118275,939.7828945238143L857.3747520358302,903.7814075150527L709.5088062505238,862.7235803613439Z" fill="#fbb03b" stroke="#fbb03b"></path><path d="M857.3747520358302,903.7814075150527L1175.1932708616368,952.6391899143346L1033.695526169613,856.8562055006623Z" fill="#d0c85b" stroke="#d0c85b"></path><path d="M1175.1932708616368,952.6391899143346L1621.814028096851,863.0931398668326L1355.4268291871995,914.1979668219574Z" fill="#ffca06" stroke="#ffca06"></path><path d="M1355.4268291871995,914.1979668219574L1621.814028096851,863.0931398668326L1407.349536959082,872.4969778582454Z" fill="#ffca00" stroke="#ffca00"></path></g><filter id="noise"><feTurbulence type="fractalNoise" in="fillPaint" fill="#F00" baseFrequency="0.7" numOctaves="10" stitchTiles="stitch"></feTurbulence><feComponentTransfer><feFuncR type="linear" slope="2" intercept="-.5"></feFuncR><feFuncG type="linear" slope="2" intercept="-.5"></feFuncG><feFuncB type="linear" slope="2" intercept="-.5"></feFuncB></feComponentTransfer><feColorMatrix type="matrix" values="0.3333 0.3333 0.3333 0 0 
 0.3333 0.3333 0.3333 0 0 
 0.3333 0.3333 0.3333 0 0 
 0 0 0 1 0"></feColorMatrix></filter><rect opacity="0.20000000000000007" width="100%" height="100%" filter="url(#noise)"></rect></svg>