<svg width="1440" height="802" xmlns="http://www.w3.org/2000/svg"><g><path d="M-80.3439433965832,-69.25855049164966L-128.94744440214708,198.41497267829254L-40.283012189902365,17.509298836812377Z" fill="#cb3144" stroke="#cb3144"></path><path d="M-80.3439433965832,-69.25855049164966L-40.283012189902365,17.509298836812377L96.5611085225828,-134.14256672607735Z" fill="#f60b0a" stroke="#f60b0a"></path><path d="M96.5611085225828,-134.14256672607735L-40.283012189902365,17.509298836812377L8.89902197290212,55.676782322116196Z" fill="#e61919" stroke="#e61919"></path><path d="M96.5611085225828,-134.14256672607735L8.89902197290212,55.676782322116196L173.5607890947722,39.79438955197111Z" fill="#bf3340" stroke="#bf3340"></path><path d="M96.5611085225828,-134.14256672607735L173.5607890947722,39.79438955197111L192.54902414046228,-77.33064796309918Z" fill="#9e3d59" stroke="#9e3d59"></path><path d="M96.5611085225828,-134.14256672607735L192.54902414046228,-77.33064796309918L389.54959731083363,-77.1071847830899Z" fill="#a04945" stroke="#a04945"></path><path d="M96.5611085225828,-134.14256672607735L389.54959731083363,-77.1071847830899L588.5805314709432,-118.67555156350136Z" fill="#af4c30" stroke="#af4c30"></path><path d="M96.5611085225828,-134.14256672607735L588.5805314709432,-118.67555156350136L1157.4361869343556,-117.56131458561867Z" fill="#f73c0d" stroke="#f73c0d"></path><path d="M192.54902414046228,-77.33064796309918L173.5607890947722,39.79438955197111L374.32387604145333,33.287006460595876Z" fill="#a15d4e" stroke="#a15d4e"></path><path d="M192.54902414046228,-77.33064796309918L374.32387604145333,33.287006460595876L389.54959731083363,-77.1071847830899Z" fill="#a65826" stroke="#a65826"></path><path d="M389.54959731083363,-77.1071847830899L374.32387604145333,33.287006460595876L444.6356942388229,-43.89996143523604Z" fill="#ba3f3c" stroke="#ba3f3c"></path><path d="M389.54959731083363,-77.1071847830899L444.6356942388229,-43.89996143523604L588.5805314709432,-118.67555156350136Z" fill="#ca2950" stroke="#ca2950"></path><path d="M444.6356942388229,-43.89996143523604L374.32387604145333,33.287006460595876L531.2571491743438,37.39558727713302Z" fill="#bb4864" stroke="#bb4864"></path><path d="M444.6356942388229,-43.89996143523604L531.2571491743438,37.39558727713302L588.5805314709432,-118.67555156350136Z" fill="#d92e3d" stroke="#d92e3d"></path><path d="M588.5805314709432,-118.67555156350136L531.2571491743438,37.39558727713302L627.6658592815511,111.77115760510787Z" fill="#e24f3a" stroke="#e24f3a"></path><path d="M588.5805314709432,-118.67555156350136L627.6658592815511,111.77115760510787L773.3916229056194,-25.211817126255482Z" fill="#ff540a" stroke="#ff540a"></path><path d="M588.5805314709432,-118.67555156350136L773.3916229056194,-25.211817126255482L928.898243594449,-103.26008000178263Z" fill="#ff7114" stroke="#ff7114"></path><path d="M588.5805314709432,-118.67555156350136L928.898243594449,-103.26008000178263L1157.4361869343556,-117.56131458561867Z" fill="#e64f17" stroke="#e64f17"></path><path d="M773.3916229056194,-25.211817126255482L627.6658592815511,111.77115760510787L782.1917255129665,16.086638590786606Z" fill="#db8a43" stroke="#db8a43"></path><path d="M773.3916229056194,-25.211817126255482L782.1917255129665,16.086638590786606L928.898243594449,-103.26008000178263Z" fill="#f77119" stroke="#f77119"></path><path d="M928.898243594449,-103.26008000178263L782.1917255129665,16.086638590786606L935.9935225895606,73.94721997668967Z" fill="#e86324" stroke="#e86324"></path><path d="M928.898243594449,-103.26008000178263L935.9935225895606,73.94721997668967L1037.5838168757036,23.52569076931104Z" fill="#d53d27" stroke="#d53d27"></path><path d="M928.898243594449,-103.26008000178263L1037.5838168757036,23.52569076931104L1069.8885009204969,-69.35208836570382Z" fill="#e0322d" stroke="#e0322d"></path><path d="M928.898243594449,-103.26008000178263L1069.8885009204969,-69.35208836570382L1157.4361869343556,-117.56131458561867Z" fill="#ea3840" stroke="#ea3840"></path><path d="M1069.8885009204969,-69.35208836570382L1037.5838168757036,23.52569076931104L1181.3375802966766,58.98259208537638Z" fill="#f1526b" stroke="#f1526b"></path><path d="M1069.8885009204969,-69.35208836570382L1181.3375802966766,58.98259208537638L1157.4361869343556,-117.56131458561867Z" fill="#f6425e" stroke="#f6425e"></path><path d="M1157.4361869343556,-117.56131458561867L1181.3375802966766,58.98259208537638L1308.638763180934,35.59958803001791Z" fill="#df545e" stroke="#df545e"></path><path d="M1157.4361869343556,-117.56131458561867L1308.638763180934,35.59958803001791L1351.1545359808952,-47.69076089607552Z" fill="#ce4c4e" stroke="#ce4c4e"></path><path d="M1157.4361869343556,-117.56131458561867L1351.1545359808952,-47.69076089607552L1610.2081713895313,-101.96972971083596Z" fill="#b15442" stroke="#b15442"></path><path d="M1351.1545359808952,-47.69076089607552L1308.638763180934,35.59958803001791L1412.6390173612162,5.541659849695861Z" fill="#b56353" stroke="#b56353"></path><path d="M1351.1545359808952,-47.69076089607552L1412.6390173612162,5.541659849695861L1492.858073876705,-27.52529995981604Z" fill="#a35a3c" stroke="#a35a3c"></path><path d="M1351.1545359808952,-47.69076089607552L1492.858073876705,-27.52529995981604L1610.2081713895313,-101.96972971083596Z" fill="#905c34" stroke="#905c34"></path><path d="M1492.858073876705,-27.52529995981604L1412.6390173612162,5.541659849695861L1454.5035396143794,195.10514848632738Z" fill="#5c9085" stroke="#5c9085"></path><path d="M1492.858073876705,-27.52529995981604L1454.5035396143794,195.10514848632738L1577.593417572789,181.1431415285915Z" fill="#2eb28b" stroke="#2eb28b"></path><path d="M1492.858073876705,-27.52529995981604L1577.593417572789,181.1431415285915L1633.0714948126115,23.45070759067312Z" fill="#419a79" stroke="#419a79"></path><path d="M1492.858073876705,-27.52529995981604L1633.0714948126115,23.45070759067312L1610.2081713895313,-101.96972971083596Z" fill="#806329" stroke="#806329"></path><path d="M-40.283012189902365,17.509298836812377L-128.94744440214708,198.41497267829254L8.89902197290212,55.676782322116196Z" fill="#a04c6d" stroke="#a04c6d"></path><path d="M8.89902197290212,55.676782322116196L-128.94744440214708,198.41497267829254L7.94779168907553,227.50927413348109Z" fill="#ab6439" stroke="#ab6439"></path><path d="M8.89902197290212,55.676782322116196L7.94779168907553,227.50927413348109L161.6741805151105,149.98256674502045Z" fill="#7b7d70" stroke="#7b7d70"></path><path d="M8.89902197290212,55.676782322116196L161.6741805151105,149.98256674502045L173.5607890947722,39.79438955197111Z" fill="#5d78ac" stroke="#5d78ac"></path><path d="M173.5607890947722,39.79438955197111L161.6741805151105,149.98256674502045L374.32387604145333,33.287006460595876Z" fill="#518ca0" stroke="#518ca0"></path><path d="M374.32387604145333,33.287006460595876L161.6741805151105,149.98256674502045L350.0621629622765,231.10765541670844Z" fill="#4daf77" stroke="#4daf77"></path><path d="M374.32387604145333,33.287006460595876L350.0621629622765,231.10765541670844L436.8104845681228,147.51846579601988Z" fill="#5e9e82" stroke="#5e9e82"></path><path d="M374.32387604145333,33.287006460595876L436.8104845681228,147.51846579601988L531.2571491743438,37.39558727713302Z" fill="#7772a5" stroke="#7772a5"></path><path d="M531.2571491743438,37.39558727713302L436.8104845681228,147.51846579601988L594.2304530902766,193.9443957270123Z" fill="#7f858f" stroke="#7f858f"></path><path d="M531.2571491743438,37.39558727713302L594.2304530902766,193.9443957270123L627.6658592815511,111.77115760510787Z" fill="#928b78" stroke="#928b78"></path><path d="M627.6658592815511,111.77115760510787L594.2304530902766,193.9443957270123L768.5396178835072,145.10984207270667Z" fill="#aaa844" stroke="#aaa844"></path><path d="M627.6658592815511,111.77115760510787L768.5396178835072,145.10984207270667L782.1917255129665,16.086638590786606Z" fill="#a1ae7a" stroke="#a1ae7a"></path><path d="M782.1917255129665,16.086638590786606L768.5396178835072,145.10984207270667L935.9935225895606,73.94721997668967Z" fill="#a4b47b" stroke="#a4b47b"></path><path d="M935.9935225895606,73.94721997668967L768.5396178835072,145.10984207270667L876.3074098690413,213.50586211774498Z" fill="#98bd5d" stroke="#98bd5d"></path><path d="M935.9935225895606,73.94721997668967L876.3074098690413,213.50586211774498L1094.567856574431,171.07904869830236Z" fill="#808c57" stroke="#808c57"></path><path d="M935.9935225895606,73.94721997668967L1094.567856574431,171.07904869830236L1037.5838168757036,23.52569076931104Z" fill="#847f9f" stroke="#847f9f"></path><path d="M1037.5838168757036,23.52569076931104L1094.567856574431,171.07904869830236L1181.3375802966766,58.98259208537638Z" fill="#9d87c1" stroke="#9d87c1"></path><path d="M1181.3375802966766,58.98259208537638L1094.567856574431,171.07904869830236L1165.0314927799627,146.64925595279783Z" fill="#9a9aaf" stroke="#9a9aaf"></path><path d="M1181.3375802966766,58.98259208537638L1165.0314927799627,146.64925595279783L1308.638763180934,35.59958803001791Z" fill="#898eb9" stroke="#898eb9"></path><path d="M1308.638763180934,35.59958803001791L1165.0314927799627,146.64925595279783L1364.7156976070255,185.87661979021505Z" fill="#72a3a2" stroke="#72a3a2"></path><path d="M1308.638763180934,35.59958803001791L1364.7156976070255,185.87661979021505L1412.6390173612162,5.541659849695861Z" fill="#6495a3" stroke="#6495a3"></path><path d="M1412.6390173612162,5.541659849695861L1364.7156976070255,185.87661979021505L1454.5035396143794,195.10514848632738Z" fill="#4daf8e" stroke="#4daf8e"></path><path d="M1633.0714948126115,23.45070759067312L1577.593417572789,181.1431415285915L1645.033831349574,337.8347816481255Z" fill="#30cd52" stroke="#30cd52"></path><path d="M-128.94744440214708,198.41497267829254L-127.36741457600147,706.1218650941737L-127.21318658906966,490.75565001461655Z" fill="#f96f1d" stroke="#f96f1d"></path><path d="M-128.94744440214708,198.41497267829254L-127.21318658906966,490.75565001461655L-25.370337937492877,336.86888583237305Z" fill="#f94710" stroke="#f94710"></path><path d="M-128.94744440214708,198.41497267829254L-25.370337937492877,336.86888583237305L7.94779168907553,227.50927413348109Z" fill="#d43759" stroke="#d43759"></path><path d="M7.94779168907553,227.50927413348109L-25.370337937492877,336.86888583237305L59.183420191984624,377.86790505284443Z" fill="#d94f43" stroke="#d94f43"></path><path d="M7.94779168907553,227.50927413348109L59.183420191984624,377.86790505284443L165.0508746644482,371.49562283884734Z" fill="#bb6755" stroke="#bb6755"></path><path d="M7.94779168907553,227.50927413348109L165.0508746644482,371.49562283884734L161.6741805151105,149.98256674502045Z" fill="#876a9b" stroke="#876a9b"></path><path d="M161.6741805151105,149.98256674502045L165.0508746644482,371.49562283884734L329.17506428668275,318.5945012094453Z" fill="#807b9b" stroke="#807b9b"></path><path d="M161.6741805151105,149.98256674502045L329.17506428668275,318.5945012094453L350.0621629622765,231.10765541670844Z" fill="#6e967f" stroke="#6e967f"></path><path d="M350.0621629622765,231.10765541670844L329.17506428668275,318.5945012094453L479.18096885085106,342.1020347927697Z" fill="#9d7c78" stroke="#9d7c78"></path><path d="M350.0621629622765,231.10765541670844L479.18096885085106,342.1020347927697L436.8104845681228,147.51846579601988Z" fill="#8c7993" stroke="#8c7993"></path><path d="M436.8104845681228,147.51846579601988L479.18096885085106,342.1020347927697L594.2304530902766,193.9443957270123Z" fill="#9b738f" stroke="#9b738f"></path><path d="M594.2304530902766,193.9443957270123L479.18096885085106,342.1020347927697L644.7274070163257,315.5510933091864Z" fill="#cc6972" stroke="#cc6972"></path><path d="M594.2304530902766,193.9443957270123L644.7274070163257,315.5510933091864L713.2542384718545,290.9762268490158Z" fill="#da7362" stroke="#da7362"></path><path d="M594.2304530902766,193.9443957270123L713.2542384718545,290.9762268490158L768.5396178835072,145.10984207270667Z" fill="#bea948" stroke="#bea948"></path><path d="M768.5396178835072,145.10984207270667L713.2542384718545,290.9762268490158L876.3074098690413,213.50586211774498Z" fill="#c1ca5b" stroke="#c1ca5b"></path><path d="M876.3074098690413,213.50586211774498L713.2542384718545,290.9762268490158L914.7219797712751,293.70782173937187Z" fill="#d09d79" stroke="#d09d79"></path><path d="M876.3074098690413,213.50586211774498L914.7219797712751,293.70782173937187L1094.567856574431,171.07904869830236Z" fill="#9a755e" stroke="#9a755e"></path><path d="M1094.567856574431,171.07904869830236L914.7219797712751,293.70782173937187L1032.9661469324492,391.84443089179695Z" fill="#c3677b" stroke="#c3677b"></path><path d="M1094.567856574431,171.07904869830236L1032.9661469324492,391.84443089179695L1196.929399643559,393.7025062623434Z" fill="#e97f83" stroke="#e97f83"></path><path d="M1094.567856574431,171.07904869830236L1196.929399643559,393.7025062623434L1165.0314927799627,146.64925595279783Z" fill="#be85ab" stroke="#be85ab"></path><path d="M1165.0314927799627,146.64925595279783L1196.929399643559,393.7025062623434L1305.9919486381114,363.28219508752227Z" fill="#c68290" stroke="#c68290"></path><path d="M1165.0314927799627,146.64925595279783L1305.9919486381114,363.28219508752227L1364.7156976070255,185.87661979021505Z" fill="#969299" stroke="#969299"></path><path d="M1364.7156976070255,185.87661979021505L1305.9919486381114,363.28219508752227L1423.6511902255006,338.7993947439827Z" fill="#9a8b85" stroke="#9a8b85"></path><path d="M1364.7156976070255,185.87661979021505L1423.6511902255006,338.7993947439827L1454.5035396143794,195.10514848632738Z" fill="#72978d" stroke="#72978d"></path><path d="M1454.5035396143794,195.10514848632738L1423.6511902255006,338.7993947439827L1577.593417572789,181.1431415285915Z" fill="#5c9e84" stroke="#5c9e84"></path><path d="M1577.593417572789,181.1431415285915L1423.6511902255006,338.7993947439827L1645.033831349574,337.8347816481255Z" fill="#62957a" stroke="#62957a"></path><path d="M-25.370337937492877,336.86888583237305L-127.21318658906966,490.75565001461655L29.527749477420002,493.1606114911847Z" fill="#ff7d1c" stroke="#ff7d1c"></path><path d="M-25.370337937492877,336.86888583237305L29.527749477420002,493.1606114911847L59.183420191984624,377.86790505284443Z" fill="#e67a28" stroke="#e67a28"></path><path d="M59.183420191984624,377.86790505284443L29.527749477420002,493.1606114911847L165.0508746644482,371.49562283884734Z" fill="#c4954b" stroke="#c4954b"></path><path d="M165.0508746644482,371.49562283884734L29.527749477420002,493.1606114911847L204.5289021357894,528.3472689986229Z" fill="#a4a66c" stroke="#a4a66c"></path><path d="M165.0508746644482,371.49562283884734L204.5289021357894,528.3472689986229L383.2450859853998,466.76678219344467Z" fill="#9fc45a" stroke="#9fc45a"></path><path d="M165.0508746644482,371.49562283884734L383.2450859853998,466.76678219344467L329.17506428668275,318.5945012094453Z" fill="#a4b039" stroke="#a4b039"></path><path d="M329.17506428668275,318.5945012094453L383.2450859853998,466.76678219344467L449.52554600313306,425.1306059281342Z" fill="#b6aa48" stroke="#b6aa48"></path><path d="M329.17506428668275,318.5945012094453L449.52554600313306,425.1306059281342L479.18096885085106,342.1020347927697Z" fill="#be8843" stroke="#be8843"></path><path d="M479.18096885085106,342.1020347927697L449.52554600313306,425.1306059281342L623.4775862516835,528.8979552686214Z" fill="#d8a458" stroke="#d8a458"></path><path d="M479.18096885085106,342.1020347927697L623.4775862516835,528.8979552686214L644.7274070163257,315.5510933091864Z" fill="#ed992b" stroke="#ed992b"></path><path d="M644.7274070163257,315.5510933091864L623.4775862516835,528.8979552686214L742.915441908408,492.69084219587967Z" fill="#ffcb23" stroke="#ffcb23"></path><path d="M644.7274070163257,315.5510933091864L742.915441908408,492.69084219587967L713.2542384718545,290.9762268490158Z" fill="#ffa90d" stroke="#ffa90d"></path><path d="M713.2542384718545,290.9762268490158L742.915441908408,492.69084219587967L914.7219797712751,293.70782173937187Z" fill="#ffc919" stroke="#ffc919"></path><path d="M914.7219797712751,293.70782173937187L742.915441908408,492.69084219587967L900.4874571738765,483.3537052804604Z" fill="#f1d62e" stroke="#f1d62e"></path><path d="M914.7219797712751,293.70782173937187L900.4874571738765,483.3537052804604L1032.9661469324492,391.84443089179695Z" fill="#d69020" stroke="#d69020"></path><path d="M1032.9661469324492,391.84443089179695L900.4874571738765,483.3537052804604L1065.377002991736,445.43118136702105Z" fill="#ddad43" stroke="#ddad43"></path><path d="M1032.9661469324492,391.84443089179695L1065.377002991736,445.43118136702105L1130.2450764831156,435.7258615572937Z" fill="#f0ae62" stroke="#f0ae62"></path><path d="M1032.9661469324492,391.84443089179695L1130.2450764831156,435.7258615572937L1196.929399643559,393.7025062623434Z" fill="#fbaa71" stroke="#fbaa71"></path><path d="M1196.929399643559,393.7025062623434L1130.2450764831156,435.7258615572937L1232.0335780875757,572.1180202788673Z" fill="#e1b374" stroke="#e1b374"></path><path d="M1196.929399643559,393.7025062623434L1232.0335780875757,572.1180202788673L1341.7481522192247,452.2620389913209Z" fill="#cbb36b" stroke="#cbb36b"></path><path d="M1196.929399643559,393.7025062623434L1341.7481522192247,452.2620389913209L1305.9919486381114,363.28219508752227Z" fill="#ccb35c" stroke="#ccb35c"></path><path d="M1305.9919486381114,363.28219508752227L1341.7481522192247,452.2620389913209L1423.6511902255006,338.7993947439827Z" fill="#b6af4d" stroke="#b6af4d"></path><path d="M1423.6511902255006,338.7993947439827L1341.7481522192247,452.2620389913209L1498.6716664209962,468.101483208593Z" fill="#a3c851" stroke="#a3c851"></path><path d="M1423.6511902255006,338.7993947439827L1498.6716664209962,468.101483208593L1645.033831349574,337.8347816481255Z" fill="#85b938" stroke="#85b938"></path><path d="M1645.033831349574,337.8347816481255L1498.6716664209962,468.101483208593L1562.0653242338449,525.2511872933246Z" fill="#80e148" stroke="#80e148"></path><path d="M1645.033831349574,337.8347816481255L1562.0653242338449,525.2511872933246L1640.7017224794254,643.1674531497993Z" fill="#6eb53f" stroke="#6eb53f"></path><path d="M-127.21318658906966,490.75565001461655L-127.36741457600147,706.1218650941737L-95.89517599437386,566.4747447590344Z" fill="#f4434e" stroke="#f4434e"></path><path d="M-127.21318658906966,490.75565001461655L-95.89517599437386,566.4747447590344L29.527749477420002,493.1606114911847Z" fill="#e84319" stroke="#e84319"></path><path d="M29.527749477420002,493.1606114911847L-95.89517599437386,566.4747447590344L104.71156331710517,654.4873470184393Z" fill="#da4f51" stroke="#da4f51"></path><path d="M29.527749477420002,493.1606114911847L104.71156331710517,654.4873470184393L204.5289021357894,528.3472689986229Z" fill="#a06b75" stroke="#a06b75"></path><path d="M204.5289021357894,528.3472689986229L104.71156331710517,654.4873470184393L196.4378401869908,651.2162040127441Z" fill="#988abf" stroke="#988abf"></path><path d="M204.5289021357894,528.3472689986229L196.4378401869908,651.2162040127441L306.60346060059965,639.9685938074253Z" fill="#9b93a3" stroke="#9b93a3"></path><path d="M204.5289021357894,528.3472689986229L306.60346060059965,639.9685938074253L383.2450859853998,466.76678219344467Z" fill="#8c8a4f" stroke="#8c8a4f"></path><path d="M383.2450859853998,466.76678219344467L306.60346060059965,639.9685938074253L473.76363307936117,628.8650103239343Z" fill="#a8837c" stroke="#a8837c"></path><path d="M383.2450859853998,466.76678219344467L473.76363307936117,628.8650103239343L449.52554600313306,425.1306059281342Z" fill="#ae805f" stroke="#ae805f"></path><path d="M449.52554600313306,425.1306059281342L473.76363307936117,628.8650103239343L623.4775862516835,528.8979552686214Z" fill="#bd6658" stroke="#bd6658"></path><path d="M623.4775862516835,528.8979552686214L473.76363307936117,628.8650103239343L575.1600211672485,662.0929478667676Z" fill="#df7b8b" stroke="#df7b8b"></path><path d="M623.4775862516835,528.8979552686214L575.1600211672485,662.0929478667676L800.736312402878,622.439661452081Z" fill="#f99263" stroke="#f99263"></path><path d="M623.4775862516835,528.8979552686214L800.736312402878,622.439661452081L742.915441908408,492.69084219587967Z" fill="#e79832" stroke="#e79832"></path><path d="M742.915441908408,492.69084219587967L800.736312402878,622.439661452081L900.4874571738765,483.3537052804604Z" fill="#dfac31" stroke="#dfac31"></path><path d="M900.4874571738765,483.3537052804604L800.736312402878,622.439661452081L941.1098044575192,630.9322698437609Z" fill="#da955b" stroke="#da955b"></path><path d="M900.4874571738765,483.3537052804604L941.1098044575192,630.9322698437609L1064.570997171104,574.9738582852297Z" fill="#c1684d" stroke="#c1684d"></path><path d="M900.4874571738765,483.3537052804604L1064.570997171104,574.9738582852297L1065.377002991736,445.43118136702105Z" fill="#cd8146" stroke="#cd8146"></path><path d="M1065.377002991736,445.43118136702105L1064.570997171104,574.9738582852297L1130.2450764831156,435.7258615572937Z" fill="#e69a6b" stroke="#e69a6b"></path><path d="M1130.2450764831156,435.7258615572937L1064.570997171104,574.9738582852297L1232.0335780875757,572.1180202788673Z" fill="#db7b75" stroke="#db7b75"></path><path d="M1341.7481522192247,452.2620389913209L1232.0335780875757,572.1180202788673L1318.2885116175748,577.9491987172514Z" fill="#ab8262" stroke="#ab8262"></path><path d="M1341.7481522192247,452.2620389913209L1318.2885116175748,577.9491987172514L1498.6716664209962,468.101483208593Z" fill="#9ca65a" stroke="#9ca65a"></path><path d="M1498.6716664209962,468.101483208593L1318.2885116175748,577.9491987172514L1513.0498489085585,569.3446726561524Z" fill="#818d55" stroke="#818d55"></path><path d="M1498.6716664209962,468.101483208593L1513.0498489085585,569.3446726561524L1562.0653242338449,525.2511872933246Z" fill="#6c9e48" stroke="#6c9e48"></path><path d="M1562.0653242338449,525.2511872933246L1513.0498489085585,569.3446726561524L1640.7017224794254,643.1674531497993Z" fill="#72a36f" stroke="#72a36f"></path><path d="M-95.89517599437386,566.4747447590344L-127.36741457600147,706.1218650941737L104.71156331710517,654.4873470184393Z" fill="#f8516d" stroke="#f8516d"></path><path d="M104.71156331710517,654.4873470184393L-127.36741457600147,706.1218650941737L35.10624736081809,813.6204619007185Z" fill="#c66c68" stroke="#c66c68"></path><path d="M104.71156331710517,654.4873470184393L35.10624736081809,813.6204619007185L242.1411156328395,806.9652314088307Z" fill="#76979c" stroke="#76979c"></path><path d="M104.71156331710517,654.4873470184393L242.1411156328395,806.9652314088307L196.4378401869908,651.2162040127441Z" fill="#7c9cb2" stroke="#7c9cb2"></path><path d="M196.4378401869908,651.2162040127441L242.1411156328395,806.9652314088307L341.8078378471546,710.6927828630432Z" fill="#7aab92" stroke="#7aab92"></path><path d="M196.4378401869908,651.2162040127441L341.8078378471546,710.6927828630432L306.60346060059965,639.9685938074253Z" fill="#92a699" stroke="#92a699"></path><path d="M306.60346060059965,639.9685938074253L341.8078378471546,710.6927828630432L473.76363307936117,628.8650103239343Z" fill="#a49a9d" stroke="#a49a9d"></path><path d="M473.76363307936117,628.8650103239343L341.8078378471546,710.6927828630432L494.9251004285179,794.7737150546163Z" fill="#9e8fa1" stroke="#9e8fa1"></path><path d="M473.76363307936117,628.8650103239343L494.9251004285179,794.7737150546163L572.8095070063137,739.7730667027645Z" fill="#af899a" stroke="#af899a"></path><path d="M473.76363307936117,628.8650103239343L572.8095070063137,739.7730667027645L575.1600211672485,662.0929478667676Z" fill="#c98697" stroke="#c98697"></path><path d="M575.1600211672485,662.0929478667676L572.8095070063137,739.7730667027645L750.4912966350093,789.9407339794561Z" fill="#d19d5a" stroke="#d19d5a"></path><path d="M575.1600211672485,662.0929478667676L750.4912966350093,789.9407339794561L800.736312402878,622.439661452081Z" fill="#e4b36c" stroke="#e4b36c"></path><path d="M800.736312402878,622.439661452081L750.4912966350093,789.9407339794561L875.2700459840707,762.7135146711953Z" fill="#d3d871" stroke="#d3d871"></path><path d="M800.736312402878,622.439661452081L875.2700459840707,762.7135146711953L941.1098044575192,630.9322698437609Z" fill="#d7ae7d" stroke="#d7ae7d"></path><path d="M941.1098044575192,630.9322698437609L875.2700459840707,762.7135146711953L1002.1685584448278,810.2330623776652Z" fill="#ab956a" stroke="#ab956a"></path><path d="M941.1098044575192,630.9322698437609L1002.1685584448278,810.2330623776652L1064.570997171104,574.9738582852297Z" fill="#ca858e" stroke="#ca858e"></path><path d="M1064.570997171104,574.9738582852297L1002.1685584448278,810.2330623776652L1224.5445627858862,726.3550019776449Z" fill="#d497b2" stroke="#d497b2"></path><path d="M1064.570997171104,574.9738582852297L1224.5445627858862,726.3550019776449L1232.0335780875757,572.1180202788673Z" fill="#eb92cb" stroke="#eb92cb"></path><path d="M1232.0335780875757,572.1180202788673L1224.5445627858862,726.3550019776449L1318.2885116175748,577.9491987172514Z" fill="#d299c1" stroke="#d299c1"></path><path d="M1318.2885116175748,577.9491987172514L1224.5445627858862,726.3550019776449L1314.4315173150972,750.8251941762865Z" fill="#b2a4ae" stroke="#b2a4ae"></path><path d="M1318.2885116175748,577.9491987172514L1314.4315173150972,750.8251941762865L1513.0498489085585,569.3446726561524Z" fill="#aba3b0" stroke="#aba3b0"></path><path d="M1513.0498489085585,569.3446726561524L1314.4315173150972,750.8251941762865L1437.482634820044,805.6888742232695Z" fill="#80b298" stroke="#80b298"></path><path d="M1513.0498489085585,569.3446726561524L1437.482634820044,805.6888742232695L1563.4350221883506,768.5365943843499Z" fill="#65b98d" stroke="#65b98d"></path><path d="M1513.0498489085585,569.3446726561524L1563.4350221883506,768.5365943843499L1640.7017224794254,643.1674531497993Z" fill="#71b593" stroke="#71b593"></path><path d="M1640.7017224794254,643.1674531497993L1563.4350221883506,768.5365943843499L1628.544846503064,869.6399282547645Z" fill="#48c874" stroke="#48c874"></path><path d="M-127.36741457600147,706.1218650941737L-94.73773145582527,878.9684805972502L35.10624736081809,813.6204619007185Z" fill="#b76945" stroke="#b76945"></path><path d="M35.10624736081809,813.6204619007185L-94.73773145582527,878.9684805972502L77.6394294644706,927.0567305851728Z" fill="#898343" stroke="#898343"></path><path d="M35.10624736081809,813.6204619007185L77.6394294644706,927.0567305851728L242.1411156328395,806.9652314088307Z" fill="#55a380" stroke="#55a380"></path><path d="M242.1411156328395,806.9652314088307L77.6394294644706,927.0567305851728L150.037492942065,950.4226804128848Z" fill="#2eb687" stroke="#2eb687"></path><path d="M242.1411156328395,806.9652314088307L150.037492942065,950.4226804128848L326.9426262541674,901.9403292331845Z" fill="#35c26f" stroke="#35c26f"></path><path d="M242.1411156328395,806.9652314088307L326.9426262541674,901.9403292331845L341.8078378471546,710.6927828630432Z" fill="#5abf6e" stroke="#5abf6e"></path><path d="M341.8078378471546,710.6927828630432L326.9426262541674,901.9403292331845L494.9251004285179,794.7737150546163Z" fill="#6dac7c" stroke="#6dac7c"></path><path d="M494.9251004285179,794.7737150546163L326.9426262541674,901.9403292331845L526.9357579969801,888.527972616721Z" fill="#63a37e" stroke="#63a37e"></path><path d="M494.9251004285179,794.7737150546163L526.9357579969801,888.527972616721L572.8095070063137,739.7730667027645Z" fill="#91997a" stroke="#91997a"></path><path d="M572.8095070063137,739.7730667027645L526.9357579969801,888.527972616721L674.7088588494807,910.4482965334319Z" fill="#95a851" stroke="#95a851"></path><path d="M572.8095070063137,739.7730667027645L674.7088588494807,910.4482965334319L750.4912966350093,789.9407339794561Z" fill="#b2b545" stroke="#b2b545"></path><path d="M750.4912966350093,789.9407339794561L674.7088588494807,910.4482965334319L724.5510415895842,944.6750947227702Z" fill="#96d43c" stroke="#96d43c"></path><path d="M750.4912966350093,789.9407339794561L724.5510415895842,944.6750947227702L924.7727842442691,945.5270013958216Z" fill="#91f746" stroke="#91f746"></path><path d="M750.4912966350093,789.9407339794561L924.7727842442691,945.5270013958216L875.2700459840707,762.7135146711953Z" fill="#9cd354" stroke="#9cd354"></path><path d="M875.2700459840707,762.7135146711953L924.7727842442691,945.5270013958216L1002.1685584448278,810.2330623776652Z" fill="#81a850" stroke="#81a850"></path><path d="M1002.1685584448278,810.2330623776652L924.7727842442691,945.5270013958216L1042.242202598136,953.3120067720301Z" fill="#68a84c" stroke="#68a84c"></path><path d="M1002.1685584448278,810.2330623776652L1042.242202598136,953.3120067720301L1196.3121439912356,887.3211052524857Z" fill="#87b17c" stroke="#87b17c"></path><path d="M1002.1685584448278,810.2330623776652L1196.3121439912356,887.3211052524857L1224.5445627858862,726.3550019776449Z" fill="#aaaca0" stroke="#aaaca0"></path><path d="M1224.5445627858862,726.3550019776449L1196.3121439912356,887.3211052524857L1314.4315173150972,750.8251941762865Z" fill="#93b198" stroke="#93b198"></path><path d="M1314.4315173150972,750.8251941762865L1196.3121439912356,887.3211052524857L1313.99119167123,890.96714284271Z" fill="#74bc87" stroke="#74bc87"></path><path d="M1314.4315173150972,750.8251941762865L1313.99119167123,890.96714284271L1437.482634820044,805.6888742232695Z" fill="#68bd84" stroke="#68bd84"></path><path d="M1437.482634820044,805.6888742232695L1313.99119167123,890.96714284271L1514.3634719960392,862.9786933562718Z" fill="#45c873" stroke="#45c873"></path><path d="M1437.482634820044,805.6888742232695L1514.3634719960392,862.9786933562718L1563.4350221883506,768.5365943843499Z" fill="#3dc874" stroke="#3dc874"></path><path d="M1563.4350221883506,768.5365943843499L1514.3634719960392,862.9786933562718L1628.544846503064,869.6399282547645Z" fill="#2ad066" stroke="#2ad066"></path><path d="M-94.73773145582527,878.9684805972502L150.037492942065,950.4226804128848L77.6394294644706,927.0567305851728Z" fill="#61974a" stroke="#61974a"></path><path d="M150.037492942065,950.4226804128848L1042.242202598136,953.3120067720301L724.5510415895842,944.6750947227702Z" fill="#7fbf1f" stroke="#7fbf1f"></path><path d="M150.037492942065,950.4226804128848L724.5510415895842,944.6750947227702L326.9426262541674,901.9403292331845Z" fill="#3bbd5e" stroke="#3bbd5e"></path><path d="M326.9426262541674,901.9403292331845L724.5510415895842,944.6750947227702L526.9357579969801,888.527972616721Z" fill="#65a862" stroke="#65a862"></path><path d="M526.9357579969801,888.527972616721L724.5510415895842,944.6750947227702L674.7088588494807,910.4482965334319Z" fill="#88bb28" stroke="#88bb28"></path><path d="M724.5510415895842,944.6750947227702L1042.242202598136,953.3120067720301L924.7727842442691,945.5270013958216Z" fill="#65cc35" stroke="#65cc35"></path><path d="M1042.242202598136,953.3120067720301L1628.544846503064,869.6399282547645L1313.99119167123,890.96714284271Z" fill="#4bc971" stroke="#4bc971"></path><path d="M1042.242202598136,953.3120067720301L1313.99119167123,890.96714284271L1196.3121439912356,887.3211052524857Z" fill="#73c080" stroke="#73c080"></path><path d="M1313.99119167123,890.96714284271L1628.544846503064,869.6399282547645L1514.3634719960392,862.9786933562718Z" fill="#29d166" stroke="#29d166"></path></g><filter id="noise"><feTurbulence type="fractalNoise" in="fillPaint" fill="#F00" baseFrequency="0.7" numOctaves="10" stitchTiles="stitch"></feTurbulence><feComponentTransfer><feFuncR type="linear" slope="2" intercept="-.5"></feFuncR><feFuncG type="linear" slope="2" intercept="-.5"></feFuncG><feFuncB type="linear" slope="2" intercept="-.5"></feFuncB></feComponentTransfer><feColorMatrix type="matrix" values="0.3333 0.3333 0.3333 0 0 
 0.3333 0.3333 0.3333 0 0 
 0.3333 0.3333 0.3333 0 0 
 0 0 0 1 0"></feColorMatrix></filter><rect opacity="0.6000000000000001" width="100%" height="100%" filter="url(#noise)"></rect></svg>